<svg xmlns="http://www.w3.org/2000/svg" xmlns:xlink="http://www.w3.org/1999/xlink" width="500" zoomAndPan="magnify" viewBox="0 0 375 374.999991" height="500" preserveAspectRatio="xMidYMid meet" version="1.0"><defs><g/><clipPath id="7f207be4db"><path d="M 105.863281 236.25 L 269.097656 236.25 L 269.097656 253.019531 L 105.863281 253.019531 Z M 105.863281 236.25 " clip-rule="nonzero"/></clipPath><clipPath id="4ac9fbe59f"><path d="M 187.46875 236.25 C 142.402344 236.25 105.863281 240.003906 105.863281 244.632812 C 105.863281 249.265625 142.402344 253.019531 187.46875 253.019531 C 232.539062 253.019531 269.074219 249.265625 269.074219 244.632812 C 269.074219 240.003906 232.539062 236.25 187.46875 236.25 Z M 187.46875 236.25 " clip-rule="nonzero"/></clipPath><clipPath id="67bbcee062"><path d="M 84 102.875 L 149.929688 102.875 L 149.929688 241.625 L 84 241.625 Z M 84 102.875 " clip-rule="nonzero"/></clipPath><clipPath id="b2868425ab"><path d="M 228 83.554688 L 291 83.554688 L 291 241.804688 L 228 241.804688 Z M 228 83.554688 " clip-rule="nonzero"/></clipPath><clipPath id="34ca303dc4"><path d="M 126 114.148438 L 249.644531 114.148438 L 249.644531 247.648438 L 126 247.648438 Z M 126 114.148438 " clip-rule="nonzero"/></clipPath></defs><g clip-path="url(#7f207be4db)"><g clip-path="url(#4ac9fbe59f)"><path fill="#d1884e" d="M 105.863281 236.25 L 269.097656 236.25 L 269.097656 253.019531 L 105.863281 253.019531 Z M 105.863281 236.25 " fill-opacity="1" fill-rule="nonzero"/></g></g><path fill="#eed0a4" d="M 126.601562 228.511719 C 114.945312 226.992188 103.960938 220.820312 96.601562 211.648438 C 89.246094 202.480469 85.597656 190.417969 86.644531 178.710938 C 96.21875 180.601562 105.382812 185.242188 112.40625 192.019531 C 119.433594 198.796875 124.453125 207.628906 126.6875 217.128906 C 127.121094 210.097656 128.34375 203.195312 131.40625 196.851562 C 134.46875 190.507812 139.140625 184.855469 145.136719 181.160156 C 147.351562 187.871094 148.394531 194.960938 147.71875 201.996094 C 147.136719 208.074219 145.398438 214.164062 141.824219 219.113281 C 138.25 224.066406 131.628906 227.800781 126.601562 228.511719 Z M 126.601562 228.511719 " fill-opacity="1" fill-rule="nonzero"/><path fill="#eed0a4" d="M 122.789062 166.359375 C 110.898438 162.113281 101.03125 152.519531 96.449219 140.75 C 91.871094 128.984375 92.652344 115.246094 98.542969 104.074219 C 106.835938 106.511719 115.175781 109.523438 121.203125 115.71875 C 123.058594 117.628906 124.636719 119.804688 125.976562 122.105469 C 129.945312 128.921875 131.824219 136.929688 131.304688 144.800781 C 130.785156 152.667969 127.621094 160.128906 122.789062 166.359375 Z M 122.789062 166.359375 " fill-opacity="1" fill-rule="nonzero"/><g clip-path="url(#67bbcee062)"><path fill="#c78045" d="M 146.296875 181.164062 C 146.148438 180.863281 145.878906 180.640625 145.558594 180.550781 C 145.234375 180.460938 144.890625 180.511719 144.605469 180.691406 C 137.8125 185.050781 131.015625 192.570312 127.621094 205.34375 C 127.207031 192.3125 126.074219 179.304688 123.929688 166.746094 C 143.441406 143.503906 129.296875 107.347656 98.753906 102.941406 C 98.257812 102.871094 97.769531 103.125 97.539062 103.570312 L 97.503906 103.644531 C 97.429688 103.746094 97.371094 103.863281 97.332031 103.988281 C 91.042969 116.628906 91.222656 130.503906 95.722656 142.128906 C 100.449219 154.332031 109.9375 164.042969 121.671875 167.324219 C 124.109375 181.699219 125.207031 196.671875 125.421875 211.589844 C 123.445312 205.867188 120.285156 200.371094 116.335938 195.535156 C 108.554688 186.007812 97.71875 179.058594 86.9375 177.886719 C 86.34375 177.824219 85.796875 178.210938 85.664062 178.792969 C 83.203125 189.519531 87.261719 201.820312 95.027344 211.636719 C 102.558594 221.160156 113.550781 228.324219 125.28125 229.480469 C 125.175781 233.222656 125.023438 236.949219 124.832031 240.644531 C 124.796875 241.292969 125.296875 241.847656 125.945312 241.878906 C 126.59375 241.914062 127.144531 241.414062 127.179688 240.765625 C 127.371094 237.023438 127.527344 233.25 127.632812 229.449219 C 142.269531 225.050781 148.179688 212.910156 149.304688 201.292969 C 150.0625 193.480469 148.632812 185.917969 146.296875 181.164062 Z M 122.90625 161.179688 C 122.703125 160.148438 122.496094 159.121094 122.277344 158.097656 C 125.074219 156.101562 127.515625 153.671875 129.496094 150.886719 C 128.976562 152.972656 128.257812 155.03125 127.335938 157.039062 C 126.070312 158.628906 124.582031 160.023438 122.90625 161.179688 Z M 97.554688 109.382812 C 98.929688 110.335938 100.421875 111.078125 101.996094 111.652344 C 102.777344 112.898438 103.53125 114.164062 104.265625 115.449219 C 101.578125 114.636719 98.964844 113.417969 96.769531 111.703125 C 97.007812 110.929688 97.269531 110.152344 97.554688 109.382812 Z M 104.746094 106.730469 C 104.914062 108.359375 104.949219 110.03125 104.761719 111.664062 C 104.613281 111.421875 104.464844 111.179688 104.316406 110.941406 C 104.433594 109.488281 104.414062 108.019531 104.25 106.574219 C 104.417969 106.625 104.582031 106.675781 104.746094 106.730469 Z M 107.484375 107.730469 C 107.710938 110.433594 107.726562 113.214844 107.195312 115.878906 C 106.683594 114.945312 106.160156 114.023438 105.621094 113.109375 C 105.996094 111.148438 106.03125 109.101562 105.855469 107.105469 C 106.40625 107.304688 106.949219 107.511719 107.484375 107.730469 Z M 109.085938 108.433594 C 109.476562 111.832031 109.316406 115.152344 108.582031 118.464844 C 108.378906 118.074219 108.171875 117.683594 107.964844 117.296875 C 108.742188 114.355469 108.816406 111.246094 108.59375 108.210938 C 108.757812 108.285156 108.921875 108.359375 109.085938 108.433594 Z M 125.3125 123.265625 C 125.058594 124.910156 124.511719 126.5 123.941406 128.0625 C 122.429688 132.203125 120.1875 136.09375 117.289062 139.421875 C 116.945312 138.371094 116.59375 137.324219 116.226562 136.28125 C 118.9375 133.058594 120.800781 129.359375 122.1875 125.367188 C 122.730469 123.800781 123.226562 122.191406 123.554688 120.550781 C 124.179688 121.433594 124.765625 122.335938 125.3125 123.265625 Z M 129.433594 133.328125 C 127.722656 138.476562 123.921875 143.75 119.539062 146.878906 C 119.167969 145.539062 118.78125 144.207031 118.382812 142.882812 C 122.179688 138.785156 125.765625 132.980469 127.433594 127.429688 C 128.261719 129.339844 128.929688 131.3125 129.433594 133.328125 Z M 130.085938 147.988281 C 128.050781 151.503906 125.300781 154.539062 122.027344 156.953125 C 121.933594 156.523438 121.84375 156.097656 121.746094 155.675781 C 125.269531 152.96875 128.257812 149.378906 130.40625 145.429688 C 130.332031 146.28125 130.226562 147.136719 130.085938 147.988281 Z M 94.925781 127.910156 C 100.167969 131.910156 106.753906 134.398438 113.308594 135.058594 C 113.527344 135.652344 113.742188 136.246094 113.953125 136.84375 C 107.707031 136.304688 100.207031 133.410156 95.113281 129.921875 C 95.035156 129.253906 94.972656 128.582031 94.925781 127.910156 Z M 130.539062 142.753906 C 128.507812 147.265625 125.347656 151.445312 121.480469 154.523438 C 121.140625 153.0625 120.789062 151.609375 120.417969 150.164062 C 124.492188 147.316406 128.023438 143.3125 130.382812 138.886719 C 130.503906 140.171875 130.554688 141.460938 130.539062 142.753906 Z M 130.152344 136.957031 C 127.960938 141.675781 124.359375 146.011719 120.128906 149.058594 C 120.03125 148.695312 119.9375 148.332031 119.839844 147.972656 C 124.078125 145.058594 127.832031 140.199219 129.863281 135.25 C 129.972656 135.816406 130.066406 136.386719 130.152344 136.957031 Z M 118.015625 141.695312 C 117.902344 141.328125 117.789062 140.964844 117.671875 140.601562 C 120.859375 137.070312 123.316406 132.894531 124.949219 128.429688 C 125.394531 127.210938 125.820312 125.96875 126.117188 124.703125 C 126.332031 125.105469 126.539062 125.511719 126.738281 125.921875 C 125.363281 131.464844 121.828125 137.433594 118.015625 141.695312 Z M 121.175781 125.015625 C 119.902344 128.683594 118.21875 132.097656 115.808594 135.105469 C 115.640625 134.644531 115.472656 134.183594 115.300781 133.722656 C 117.785156 130.703125 119.507812 127.15625 120.734375 123.433594 C 121.265625 121.824219 121.71875 120.148438 121.953125 118.453125 C 122.199219 118.753906 122.445312 119.0625 122.683594 119.371094 C 122.378906 121.292969 121.8125 123.1875 121.175781 125.015625 Z M 94.847656 126.488281 C 94.796875 125.140625 94.804688 123.785156 94.875 122.421875 C 99.652344 125.816406 105.226562 128.0625 110.984375 129.140625 C 111.648438 130.722656 112.285156 132.320312 112.894531 133.9375 C 106.398438 133.1875 99.910156 130.59375 94.847656 126.488281 Z M 111.695312 124.90625 C 113.597656 120.75 114.484375 116.199219 114.609375 111.632812 C 114.972656 111.890625 115.332031 112.152344 115.683594 112.417969 C 115.261719 117.070312 114.179688 121.710938 112.148438 125.917969 C 111.996094 125.582031 111.847656 125.242188 111.695312 124.90625 Z M 111.097656 123.597656 C 110.527344 122.363281 109.9375 121.140625 109.328125 119.929688 C 110.285156 116.308594 110.574219 112.691406 110.222656 108.992188 C 111.375 109.578125 112.484375 110.222656 113.550781 110.917969 C 113.507812 115.253906 112.769531 119.601562 111.097656 123.597656 Z M 105.007812 116.769531 C 105.320312 117.328125 105.625 117.890625 105.925781 118.457031 C 102.402344 117.660156 98.976562 116.152344 96.148438 113.914062 C 96.242188 113.542969 96.339844 113.171875 96.445312 112.804688 C 98.96875 114.679688 101.96875 115.96875 105.007812 116.769531 Z M 95.878906 115.054688 C 98.992188 117.40625 102.75 118.949219 106.574219 119.683594 C 107.476562 121.425781 108.339844 123.195312 109.167969 124.992188 C 104.140625 123.890625 99.429688 121.722656 95.214844 118.75 C 95.382812 117.519531 95.605469 116.285156 95.878906 115.054688 Z M 109.710938 126.199219 C 109.972656 126.78125 110.230469 127.363281 110.480469 127.949219 C 104.90625 126.808594 99.535156 124.542969 94.957031 121.160156 C 94.988281 120.757812 95.027344 120.355469 95.070312 119.953125 C 99.496094 122.988281 104.445312 125.164062 109.710938 126.199219 Z M 114.339844 137.945312 C 114.839844 139.410156 115.324219 140.882812 115.789062 142.367188 C 108.90625 142.386719 101.410156 139.949219 96.128906 135.601562 C 95.785156 134.199219 95.507812 132.773438 95.296875 131.328125 C 100.632812 134.757812 108.140625 137.519531 114.339844 137.945312 Z M 116.117188 143.4375 C 116.242188 143.847656 116.367188 144.261719 116.488281 144.671875 C 109.722656 144.804688 102.757812 142.847656 97.136719 139.105469 C 96.9375 138.511719 96.753906 137.910156 96.582031 137.308594 C 102.042969 141.320312 109.386719 143.527344 116.117188 143.4375 Z M 116.800781 145.734375 C 117.089844 146.742188 117.375 147.753906 117.648438 148.773438 C 111.578125 149.128906 104.542969 147.457031 99.300781 144.488281 C 98.800781 143.441406 98.335938 142.371094 97.914062 141.28125 C 97.84375 141.097656 97.777344 140.917969 97.707031 140.734375 C 103.375 144.164062 110.1875 145.921875 116.800781 145.734375 Z M 117.925781 149.828125 C 118.027344 150.210938 118.128906 150.59375 118.226562 150.980469 C 112.46875 151.527344 106.246094 150.53125 101.101562 147.875 C 100.765625 147.304688 100.441406 146.726562 100.132812 146.140625 C 105.429688 148.78125 112.121094 150.210938 117.925781 149.828125 Z M 118.492188 152.03125 C 118.910156 153.703125 119.304688 155.390625 119.679688 157.085938 C 114.265625 157.144531 108.640625 155.566406 104.210938 152.457031 C 103.484375 151.523438 102.796875 150.558594 102.144531 149.558594 C 107.195312 151.777344 113.046875 152.574219 118.492188 152.03125 Z M 107.433594 156.121094 C 107.074219 155.761719 106.722656 155.394531 106.378906 155.015625 C 110.511719 157.171875 115.289062 158.242188 119.914062 158.152344 C 119.992188 158.519531 120.070312 158.882812 120.144531 159.246094 C 115.820312 159.191406 111.304688 158.089844 107.433594 156.121094 Z M 121 117.335938 C 120.839844 119.300781 120.328125 121.246094 119.71875 123.097656 C 118.597656 126.496094 117.054688 129.746094 114.867188 132.554688 C 114.175781 130.75 113.457031 128.960938 112.703125 127.199219 C 114.949219 122.867188 116.175781 118.050781 116.683594 113.203125 C 118.242188 114.472656 119.683594 115.855469 121 117.335938 Z M 103.132812 106.25 C 103.269531 107.277344 103.332031 108.316406 103.320312 109.351562 C 102.53125 108.117188 101.71875 106.902344 100.882812 105.703125 C 101.644531 105.863281 102.394531 106.046875 103.132812 106.25 Z M 98.671875 106.648438 C 99.472656 107.78125 100.25 108.933594 101.007812 110.097656 C 99.933594 109.617188 98.910156 109.042969 97.953125 108.351562 C 98.179688 107.78125 98.417969 107.214844 98.671875 106.648438 Z M 109.851562 158.351562 C 113.207031 159.617188 116.851562 160.300781 120.367188 160.320312 C 120.664062 161.785156 120.949219 163.253906 121.21875 164.734375 C 117.0625 163.40625 113.230469 161.207031 109.851562 158.351562 Z M 123.128906 162.324219 C 123.96875 161.769531 124.761719 161.160156 125.511719 160.503906 C 124.867188 161.574219 124.160156 162.628906 123.382812 163.660156 C 123.300781 163.214844 123.214844 162.769531 123.128906 162.324219 Z M 94.863281 182.253906 C 95.261719 183.484375 95.609375 184.726562 95.871094 185.988281 C 95.214844 185.3125 94.5625 184.652344 93.921875 184.019531 C 93.769531 183.242188 93.570312 182.472656 93.34375 181.710938 C 93.851562 181.878906 94.359375 182.0625 94.863281 182.257812 Z M 97.703125 183.484375 C 98.269531 185.367188 98.6875 187.289062 98.953125 189.234375 C 98.367188 188.601562 97.785156 187.980469 97.207031 187.375 C 96.976562 185.816406 96.605469 184.289062 96.148438 182.78125 C 96.671875 183.003906 97.1875 183.238281 97.703125 183.484375 Z M 100.707031 185.078125 C 101.671875 187.59375 102.140625 190.269531 102.328125 192.960938 C 101.613281 192.152344 100.898438 191.359375 100.191406 190.578125 C 99.976562 188.402344 99.582031 186.25 99.007812 184.140625 C 99.578125 184.4375 100.144531 184.75 100.707031 185.078125 Z M 103.9375 187.144531 C 105.3125 190.277344 105.769531 193.578125 105.8125 196.988281 C 105.03125 196.066406 104.25 195.15625 103.46875 194.261719 C 103.367188 191.445312 102.992188 188.628906 102.144531 185.953125 C 102.746094 186.332031 103.34375 186.734375 103.9375 187.144531 Z M 107.917969 190.242188 C 108.992188 193.636719 109.179688 197.261719 109 200.828125 C 108.296875 199.964844 107.589844 199.109375 106.882812 198.261719 C 106.929688 194.828125 106.632812 191.496094 105.539062 188.316406 C 106.347656 188.929688 107.140625 189.574219 107.917969 190.242188 Z M 114.515625 197.023438 C 114.582031 197.105469 114.648438 197.1875 114.714844 197.273438 C 115.238281 200.761719 115.089844 204.328125 114.46875 207.800781 C 113.867188 207.007812 113.257812 206.210938 112.640625 205.414062 C 113.128906 201.902344 113.160156 198.324219 112.617188 194.820312 C 113.269531 195.539062 113.902344 196.269531 114.515625 197.023438 Z M 87.382812 187.683594 C 90.539062 189.035156 93.878906 190.125 97.242188 190.832031 C 98.03125 191.679688 98.828125 192.550781 99.628906 193.445312 C 95.5 192.75 91.472656 191.523438 87.628906 189.859375 C 87.523438 189.132812 87.441406 188.40625 87.382812 187.683594 Z M 93.414062 186.828125 C 94.242188 187.664062 95.082031 188.535156 95.9375 189.4375 C 92.984375 188.714844 90.070312 187.699219 87.3125 186.484375 C 87.289062 185.871094 87.285156 185.253906 87.300781 184.644531 C 89.28125 185.574219 91.304688 186.300781 93.414062 186.828125 Z M 100.746094 194.699219 C 101.324219 195.355469 101.902344 196.015625 102.480469 196.6875 C 97.644531 196.160156 92.847656 195.132812 88.328125 193.347656 C 88.136719 192.601562 87.976562 191.855469 87.835938 191.109375 C 91.96875 192.839844 96.308594 194.074219 100.746094 194.699219 Z M 103.492188 197.863281 C 104.207031 198.703125 104.925781 199.554688 105.636719 200.414062 C 100.015625 200.042969 94.488281 198.878906 89.304688 196.609375 C 89.078125 195.949219 88.867188 195.289062 88.671875 194.628906 C 93.417969 196.40625 98.445312 197.394531 103.492188 197.863281 Z M 106.5625 201.539062 C 107.269531 202.394531 107.96875 203.261719 108.660156 204.128906 C 102.554688 203.871094 96.472656 202.816406 90.835938 200.402344 C 90.46875 199.605469 90.128906 198.796875 89.8125 197.988281 C 95.144531 200.171875 100.8125 201.25 106.5625 201.539062 Z M 109.535156 205.230469 C 110.25 206.136719 110.953125 207.042969 111.644531 207.945312 C 105.171875 207.972656 98.632812 207.058594 92.800781 204.199219 C 92.355469 203.421875 91.929688 202.636719 91.53125 201.847656 C 97.253906 204.097656 103.394531 205.046875 109.535156 205.230469 Z M 93.785156 205.828125 C 99.632812 208.34375 106.089844 209.109375 112.453125 209.007812 C 113.121094 209.890625 113.773438 210.769531 114.414062 211.644531 C 107.933594 211.738281 101.328125 210.886719 95.410156 208.242188 C 94.84375 207.453125 94.300781 206.644531 93.785156 205.828125 Z M 120.691406 206.453125 C 120.796875 209.292969 120.367188 212.117188 119.558594 214.84375 C 119 214.035156 118.425781 213.21875 117.839844 212.394531 C 118.621094 209.445312 118.960938 206.324219 118.910156 203.246094 C 119.542969 204.296875 120.140625 205.367188 120.691406 206.453125 Z M 122.769531 211.144531 C 122.785156 213.453125 122.375 215.863281 121.742188 218.101562 C 121.285156 217.398438 120.8125 216.691406 120.328125 215.972656 C 121.101562 213.59375 121.605469 211.136719 121.742188 208.652344 C 122.109375 209.476562 122.453125 210.308594 122.769531 211.144531 Z M 119.480469 218.914062 C 114.058594 219.273438 108.234375 218.726562 103.191406 216.835938 C 102.28125 216.039062 101.398438 215.203125 100.546875 214.339844 C 106.082031 216.289062 112.160156 217.15625 118.003906 216.710938 C 118.511719 217.453125 119.003906 218.191406 119.480469 218.914062 Z M 120.144531 219.941406 C 120.683594 220.777344 121.203125 221.601562 121.691406 222.410156 C 117.660156 222.78125 113.648438 222.496094 109.699219 221.636719 C 108.226562 220.738281 106.800781 219.75 105.429688 218.683594 C 110.148438 219.992188 115.320312 220.316406 120.144531 219.941406 Z M 112.566406 223.238281 C 115.785156 223.691406 119.039062 223.765625 122.304688 223.425781 C 122.574219 223.882812 122.839844 224.335938 123.09375 224.78125 C 120.578125 225.039062 118.003906 224.910156 115.492188 224.585938 C 114.5 224.179688 113.523438 223.726562 112.566406 223.238281 Z M 122.503906 219.285156 C 123.050781 217.550781 123.472656 215.6875 123.6875 213.824219 C 124.035156 214.972656 124.335938 216.125 124.582031 217.285156 C 124.449219 218.648438 124.203125 219.996094 123.75 221.285156 C 123.351562 220.628906 122.9375 219.960938 122.503906 219.285156 Z M 117.765625 201.4375 C 117.988281 204.703125 117.761719 208.066406 117.019531 211.253906 C 116.46875 210.492188 115.90625 209.730469 115.335938 208.960938 C 116.011719 205.660156 116.28125 202.265625 115.988281 198.910156 C 116.605469 199.738281 117.199219 200.582031 117.765625 201.4375 Z M 111.269531 193.390625 C 112.011719 196.949219 112.113281 200.613281 111.710938 204.222656 C 111.144531 203.5 110.570312 202.777344 109.996094 202.0625 C 110.246094 198.554688 110.191406 194.96875 109.390625 191.558594 C 110.03125 192.152344 110.65625 192.761719 111.269531 193.390625 Z M 92.101562 181.320312 C 92.242188 181.753906 92.371094 182.1875 92.492188 182.625 C 91.882812 182.039062 91.28125 181.476562 90.695312 180.9375 C 91.164062 181.054688 91.632812 181.183594 92.101562 181.320312 Z M 91.855469 185.273438 C 90.316406 184.792969 88.824219 184.195312 87.351562 183.484375 C 87.398438 182.75 87.476562 182.023438 87.582031 181.304688 C 88.925781 182.472656 90.359375 183.808594 91.855469 185.273438 Z M 96.667969 209.921875 C 102.511719 212.171875 108.917969 212.859375 115.183594 212.699219 C 115.910156 213.703125 116.617188 214.703125 117.300781 215.6875 C 111.066406 216.058594 104.59375 214.917969 98.867188 212.554688 C 98.175781 211.78125 97.507812 210.992188 96.867188 210.179688 C 96.800781 210.09375 96.734375 210.007812 96.667969 209.921875 Z M 119.472656 225.976562 C 120.875 226.015625 122.277344 225.960938 123.660156 225.792969 C 123.882812 226.203125 124.101562 226.605469 124.308594 227 C 122.675781 226.777344 121.0625 226.433594 119.472656 225.976562 Z M 124.445312 222.445312 C 124.71875 221.796875 124.941406 221.136719 125.113281 220.464844 C 125.261719 221.652344 125.34375 222.84375 125.363281 224.03125 C 125.070312 223.511719 124.765625 222.980469 124.445312 222.445312 Z M 140.09375 218.710938 C 138.03125 220.167969 135.796875 221.277344 133.394531 222.085938 C 134.136719 221.023438 134.84375 219.929688 135.515625 218.808594 C 138.09375 217.992188 140.613281 216.53125 142.816406 214.765625 C 142.03125 216.144531 141.128906 217.46875 140.09375 218.710938 Z M 129.613281 223.242188 C 128.859375 221.933594 128.304688 220.53125 127.886719 219.085938 C 127.929688 218.363281 127.976562 217.652344 128.039062 216.953125 C 128.644531 218.777344 129.394531 220.535156 130.398438 222.230469 C 130.140625 222.574219 129.878906 222.910156 129.613281 223.242188 Z M 146.585938 190.097656 C 146.683594 190.664062 146.769531 191.246094 146.839844 191.835938 C 146.117188 192.796875 145.339844 193.722656 144.488281 194.566406 C 144.664062 193.683594 144.824219 192.800781 144.972656 191.917969 C 145.554688 191.355469 146.09375 190.742188 146.585938 190.097656 Z M 147.105469 199.144531 C 145.640625 200.960938 143.984375 202.558594 142.097656 203.914062 C 142.398438 202.953125 142.6875 201.988281 142.957031 201.019531 C 144.5 199.921875 145.910156 198.613281 147.160156 197.179688 C 147.15625 197.832031 147.140625 198.484375 147.105469 199.144531 Z M 137.820312 214.585938 C 140.546875 213.207031 142.984375 211.492188 145.195312 209.449219 C 144.878906 210.375 144.523438 211.285156 144.125 212.179688 C 141.925781 214.339844 139.203125 216.246094 136.34375 217.375 C 136.859375 216.460938 137.347656 215.53125 137.820312 214.585938 Z M 147.132812 195.539062 C 146.035156 196.925781 144.78125 198.214844 143.40625 199.332031 C 143.660156 198.34375 143.890625 197.355469 144.109375 196.363281 C 145.171875 195.464844 146.125 194.449219 147.003906 193.367188 C 147.066406 194.078125 147.105469 194.804688 147.132812 195.539062 Z M 142 195.035156 C 141.273438 192.226562 140.929688 189.339844 141.042969 186.425781 C 141.292969 186.191406 141.546875 185.964844 141.796875 185.742188 C 141.839844 187.730469 142.125 189.714844 142.644531 191.632812 C 142.453125 192.765625 142.238281 193.898438 142 195.035156 Z M 141.519531 197.207031 C 141.289062 198.1875 141.042969 199.164062 140.773438 200.140625 C 139.449219 196.601562 138.800781 192.8125 138.519531 189.039062 C 138.992188 188.5 139.46875 187.984375 139.953125 187.488281 C 139.949219 190.792969 140.503906 194.058594 141.519531 197.207031 Z M 140.296875 201.824219 C 139.984375 202.867188 139.65625 203.90625 139.304688 204.941406 C 137.496094 200.929688 136.4375 196.644531 136.035156 192.25 C 136.523438 191.539062 137.027344 190.863281 137.542969 190.214844 C 137.914062 194.191406 138.722656 198.160156 140.296875 201.824219 Z M 138.796875 206.378906 C 138.425781 207.394531 138.035156 208.402344 137.621094 209.398438 C 135.605469 204.9375 134.300781 200.277344 134.105469 195.363281 C 134.433594 194.777344 134.765625 194.210938 135.109375 193.664062 C 135.644531 198.082031 136.847656 202.375 138.796875 206.378906 Z M 137.054688 210.722656 C 136.738281 211.445312 136.40625 212.160156 136.0625 212.867188 C 133.972656 208.667969 132.539062 204.039062 132.144531 199.371094 C 132.46875 198.617188 132.804688 197.886719 133.152344 197.179688 C 133.589844 201.90625 135.003906 206.402344 137.054688 210.722656 Z M 135.472656 214.0625 C 135.117188 214.757812 134.75 215.441406 134.375 216.117188 C 132.296875 212.386719 131.019531 208.324219 130.433594 204.09375 C 130.707031 203.191406 131 202.320312 131.3125 201.480469 C 131.949219 205.855469 133.433594 210.152344 135.472656 214.0625 Z M 133.753906 217.195312 C 133.40625 217.792969 133.042969 218.382812 132.671875 218.960938 C 130.914062 215.839844 129.738281 212.53125 129.183594 208.988281 C 129.359375 208.140625 129.550781 207.3125 129.753906 206.507812 C 130.503906 210.265625 131.8125 213.863281 133.753906 217.195312 Z M 132.011719 219.964844 C 131.710938 220.414062 131.40625 220.855469 131.089844 221.292969 C 129.8125 219.035156 128.984375 216.660156 128.328125 214.171875 C 128.425781 213.367188 128.539062 212.582031 128.660156 211.8125 C 129.375 214.671875 130.5 217.378906 132.011719 219.964844 Z M 145.839844 207.320312 C 143.683594 209.554688 141.292969 211.429688 138.605469 212.953125 C 139.027344 212.042969 139.429688 211.125 139.8125 210.195312 C 142.277344 208.738281 144.46875 206.921875 146.414062 204.851562 C 146.253906 205.675781 146.0625 206.5 145.839844 207.320312 Z M 146.964844 201.066406 C 146.90625 201.667969 146.835938 202.269531 146.75 202.871094 C 144.914062 205.027344 142.839844 206.941406 140.488281 208.507812 C 140.863281 207.539062 141.214844 206.558594 141.550781 205.574219 C 143.585938 204.277344 145.382812 202.730469 146.976562 200.953125 C 146.972656 200.988281 146.96875 201.027344 146.964844 201.066406 Z M 145.742188 186.332031 C 145.953125 187.070312 146.144531 187.84375 146.3125 188.644531 C 145.988281 189.121094 145.644531 189.582031 145.273438 190.023438 C 145.457031 188.785156 145.613281 187.554688 145.742188 186.332031 Z M 143.105469 188.59375 C 142.925781 187.351562 142.84375 186.097656 142.863281 184.84375 C 143.101562 184.652344 143.339844 184.464844 143.578125 184.28125 C 143.457031 185.703125 143.300781 187.140625 143.105469 188.59375 Z M 127.746094 224.371094 C 127.761719 223.570312 127.769531 222.765625 127.777344 221.964844 C 128.101562 222.707031 128.46875 223.425781 128.890625 224.121094 C 128.519531 224.5625 128.140625 224.996094 127.757812 225.417969 C 127.75 225.066406 127.75 224.71875 127.746094 224.371094 Z M 132.351562 223.53125 C 134.039062 223.050781 135.652344 222.4375 137.1875 221.679688 C 135.273438 223.339844 133.039062 224.777344 130.445312 225.917969 C 131.105469 225.144531 131.738281 224.347656 132.351562 223.53125 Z M 132.351562 223.53125 " fill-opacity="1" fill-rule="nonzero"/></g><path fill="#eed0a4" d="M 252.367188 139.105469 C 242.136719 135.117188 233.996094 126.128906 231.042969 115.554688 C 228.085938 104.984375 230.386719 93.078125 237.066406 84.363281 C 244.269531 87.332031 250.863281 91.957031 255.820312 97.964844 C 260.78125 103.972656 263.839844 111.722656 263.402344 119.5 C 262.96875 127.28125 259.148438 135.273438 252.367188 139.105469 Z M 252.367188 139.105469 " fill-opacity="1" fill-rule="nonzero"/><path fill="#eed0a4" d="M 251.664062 177.667969 C 247.855469 170.527344 247.078125 161.832031 249.558594 154.128906 C 252.09375 146.257812 257.90625 139.605469 265.105469 135.535156 C 272.300781 131.464844 280.796875 129.910156 289.039062 130.589844 C 289.648438 137.683594 289.269531 144.773438 287.210938 151.589844 C 285.148438 158.40625 281.417969 164.792969 276.074219 169.503906 C 269.480469 175.3125 254.09375 178.527344 251.664062 177.667969 Z M 251.664062 177.667969 " fill-opacity="1" fill-rule="nonzero"/><path fill="#eed0a4" d="M 247.6875 240.082031 C 249.207031 233.296875 250.855469 226.503906 253.472656 220.0625 C 256.09375 213.625 259.734375 207.503906 264.785156 202.726562 C 269.839844 197.949219 276.394531 194.585938 283.332031 194.101562 C 283.945312 197.296875 283.394531 200.769531 282.367188 203.855469 C 281.34375 206.945312 279.769531 209.820312 278.113281 212.621094 C 274.539062 218.679688 270.515625 224.53125 265.496094 229.460938 C 260.476562 234.386719 254.476562 238.238281 247.6875 240.082031 Z M 247.6875 240.082031 " fill-opacity="1" fill-rule="nonzero"/><g clip-path="url(#b2868425ab)"><path fill="#c78045" d="M 283.429688 192.703125 C 266.421875 190.871094 252.046875 214.566406 248.6875 231.546875 C 248.269531 214.5625 250.269531 191.757812 252.582031 179.289062 C 291.761719 179 290.78125 137.148438 289.675781 130.242188 C 289.59375 129.734375 289.167969 129.347656 288.652344 129.316406 C 273.398438 128.367188 260.917969 134.253906 253.671875 143.398438 C 253.628906 142.15625 253.554688 140.808594 253.453125 139.371094 C 272.550781 126.539062 266.347656 95.449219 237.828125 83.722656 C 237.421875 83.558594 236.960938 83.644531 236.644531 83.945312 C 218.828125 100.929688 232.886719 135.015625 251.273438 139.832031 C 251.449219 142.378906 251.523438 144.632812 251.5 146.484375 C 245.882812 155.53125 244.90625 167.042969 250.511719 178.316406 C 247.796875 192.261719 245.417969 220.328125 246.902344 240.53125 C 246.976562 241.554688 248.285156 241.925781 248.894531 241.109375 C 249.046875 241.109375 249.199219 241.082031 249.34375 241.023438 C 278.671875 228.679688 284.453125 202.285156 284.417969 193.796875 C 284.414062 193.234375 283.988281 192.765625 283.429688 192.703125 Z M 249.121094 160.199219 C 250.066406 163.042969 251.496094 165.65625 253.464844 168.035156 C 253.105469 168.972656 252.769531 169.921875 252.457031 170.875 C 250.929688 169.183594 249.832031 167.230469 249.066406 165.113281 C 248.945312 163.453125 248.96875 161.808594 249.121094 160.199219 Z M 258.027344 163.109375 C 265.589844 165.460938 274.179688 164.605469 281.585938 161.777344 C 280.960938 162.828125 280.277344 163.851562 279.527344 164.839844 C 272.261719 167.457031 264.242188 167.582031 256.78125 165.769531 C 257.175781 164.875 257.589844 163.988281 258.027344 163.109375 Z M 264.394531 136.949219 C 263.992188 140.683594 264.140625 144.488281 265.167969 148.101562 C 264.605469 148.789062 264.054688 149.484375 263.515625 150.1875 C 262.191406 146.453125 261.628906 142.449219 262.015625 138.507812 C 262.78125 137.960938 263.574219 137.441406 264.394531 136.949219 Z M 268.210938 134.960938 C 267.328125 138.339844 267.144531 141.789062 267.632812 145.253906 C 267.0625 145.878906 266.503906 146.515625 265.957031 147.160156 C 265.066406 143.632812 265.019531 139.933594 265.476562 136.324219 C 266.359375 135.839844 267.269531 135.382812 268.210938 134.960938 Z M 271.675781 133.609375 C 270.765625 136.472656 270.234375 139.453125 270.289062 142.460938 C 269.320312 143.433594 268.894531 143.894531 268.523438 144.285156 C 268.164062 140.972656 268.449219 137.675781 269.394531 134.457031 C 270.140625 134.152344 270.898438 133.867188 271.675781 133.609375 Z M 274.992188 132.652344 C 274.222656 134.820312 273.695312 137.105469 273.507812 139.394531 C 272.757812 140.070312 272.023438 140.757812 271.300781 141.460938 C 271.367188 138.660156 271.953125 135.890625 272.855469 133.230469 C 273.554688 133.019531 274.269531 132.828125 274.992188 132.652344 Z M 277.78125 132.074219 C 277.113281 133.6875 276.675781 135.113281 276.421875 136.917969 C 275.8125 137.40625 275.210938 137.90625 274.621094 138.417969 C 274.886719 136.359375 275.425781 134.316406 276.160156 132.382812 C 276.695312 132.269531 277.234375 132.167969 277.78125 132.074219 Z M 280.789062 131.664062 C 279.460938 135.316406 281.011719 133.382812 277.601562 135.992188 C 277.890625 134.558594 278.332031 133.320312 278.949219 131.886719 C 279.554688 131.800781 280.167969 131.726562 280.789062 131.664062 Z M 283.746094 134.453125 C 285.101562 134.488281 286.472656 134.402344 287.796875 134.113281 C 287.816406 134.617188 287.832031 135.160156 287.835938 135.734375 C 285.519531 136.257812 283.09375 136.542969 280.707031 136.449219 C 281.699219 135.75 282.710938 135.082031 283.746094 134.453125 Z M 285.15625 153.824219 C 278.699219 156.765625 269.472656 157.144531 262.777344 154.984375 C 263.339844 154.152344 263.921875 153.335938 264.519531 152.527344 C 270.929688 154.292969 279.472656 154.144531 285.792969 151.71875 C 285.597656 152.417969 285.386719 153.121094 285.15625 153.824219 Z M 286.117188 150.503906 C 280.050781 153.074219 271.582031 153.332031 265.171875 151.660156 C 265.789062 150.851562 266.425781 150.054688 267.074219 149.269531 C 268.425781 149.660156 269.78125 150.019531 271.175781 150.210938 C 275.675781 150.820312 281.820312 150.496094 286.480469 148.957031 C 286.367188 149.472656 286.246094 149.988281 286.117188 150.503906 Z M 286.722656 147.8125 C 281.976562 149.53125 274.1875 150.242188 267.785156 148.429688 C 268.601562 147.472656 269.445312 146.535156 270.308594 145.617188 C 275.261719 146.796875 282.019531 146.808594 287.140625 145.417969 C 287.019531 146.203125 286.882812 147.003906 286.722656 147.8125 Z M 273.023438 142.867188 C 277.820312 143.632812 282.625 143.609375 287.453125 143.078125 C 287.40625 143.488281 287.355469 143.90625 287.296875 144.328125 C 282.480469 145.746094 276.003906 145.816406 271.117188 144.769531 C 271.742188 144.125 272.378906 143.492188 273.023438 142.867188 Z M 279.441406 137.371094 C 282.226562 137.632812 285.101562 137.363281 287.835938 136.761719 C 287.832031 137.378906 287.816406 138.027344 287.789062 138.703125 C 284.226562 139.382812 280.457031 139.699219 276.816406 139.449219 C 277.671875 138.734375 278.546875 138.039062 279.441406 137.371094 Z M 275.742188 140.371094 C 279.695312 140.757812 283.832031 140.460938 287.738281 139.734375 C 287.695312 140.480469 287.636719 141.257812 287.558594 142.054688 C 283.007812 142.570312 278.472656 142.632812 273.949219 141.988281 C 274.535156 141.441406 275.132812 140.902344 275.742188 140.371094 Z M 262.796875 151.140625 C 262.320312 151.78125 261.855469 152.425781 261.402344 153.078125 C 259.480469 149.339844 258.582031 145.691406 258.46875 141.429688 C 259.25 140.6875 260.078125 139.980469 260.941406 139.308594 C 260.691406 143.324219 261.367188 147.375 262.796875 151.140625 Z M 262.195312 155.851562 C 268.84375 158.082031 278.011719 157.839844 284.710938 155.109375 C 284.46875 155.78125 284.207031 156.445312 283.929688 157.109375 C 276.984375 159.949219 267.734375 160.617188 260.574219 158.445312 C 261.097656 157.570312 261.636719 156.703125 262.195312 155.851562 Z M 260.050781 159.335938 C 267.128906 161.550781 276.253906 161.042969 283.351562 158.410156 C 283.046875 159.074219 282.71875 159.730469 282.371094 160.378906 C 274.976562 163.46875 266.191406 164.542969 258.488281 162.199219 C 258.984375 161.230469 259.507812 160.277344 260.050781 159.335938 Z M 261.390625 176.15625 C 258.75 176.253906 256.035156 175.738281 253.605469 174.765625 C 253.78125 174.101562 253.972656 173.441406 254.171875 172.789062 C 258.382812 174.308594 262.910156 174.804688 267.351562 174.304688 C 265.527344 175.070312 263.542969 175.691406 261.390625 176.15625 Z M 270.566406 172.734375 C 265.238281 173.976562 259.613281 173.691406 254.472656 171.828125 C 254.71875 171.058594 254.984375 170.296875 255.261719 169.542969 C 260.902344 171.59375 268.070312 171.777344 274.164062 170.324219 C 273.054688 171.195312 271.859375 172.003906 270.566406 172.734375 Z M 253.882812 166.957031 C 251.710938 164.199219 250.269531 161.125 249.46875 157.730469 C 249.71875 156.375 250.0625 155.046875 250.5 153.75 C 251.203125 157.578125 252.738281 161.136719 254.988281 164.363281 C 254.601562 165.21875 254.234375 166.082031 253.882812 166.957031 Z M 253.351562 175.746094 C 254.554688 176.222656 255.820312 176.585938 257.113281 176.828125 C 255.808594 176.964844 254.449219 177.046875 253.035156 177.070312 C 253.132812 176.628906 253.242188 176.1875 253.351562 175.746094 Z M 275.972656 168.785156 C 269.691406 170.773438 261.726562 170.824219 255.613281 168.601562 C 255.859375 167.964844 256.113281 167.335938 256.378906 166.707031 C 263.5625 168.480469 271.261719 168.496094 278.359375 166.292969 C 277.621094 167.160156 276.828125 167.992188 275.972656 168.785156 Z M 287.746094 133.09375 C 287.019531 133.265625 286.277344 133.367188 285.53125 133.417969 C 286.242188 133.027344 286.957031 132.652344 287.6875 132.296875 C 287.710938 132.546875 287.730469 132.8125 287.746094 133.09375 Z M 281.28125 133.390625 C 281.457031 132.773438 281.667969 132.164062 281.898438 131.5625 C 282.765625 131.496094 283.648438 131.453125 284.542969 131.4375 C 283.429688 132.046875 282.34375 132.699219 281.28125 133.390625 Z M 257.5 142.386719 C 257.726562 146.59375 258.738281 150.246094 260.761719 154.019531 C 260.207031 154.839844 259.671875 155.671875 259.15625 156.515625 C 257.042969 152.664062 256.066406 148.492188 256 144.046875 C 256.476562 143.476562 256.976562 142.925781 257.5 142.386719 Z M 255.035156 145.25 C 255.257812 149.613281 256.367188 153.710938 258.558594 157.503906 C 258.085938 158.300781 257.628906 159.105469 257.191406 159.921875 C 254.976562 156.214844 253.667969 152.191406 253.242188 147.875 C 253.792969 146.972656 254.390625 146.097656 255.035156 145.25 Z M 234.582031 89.898438 C 236.652344 92.25 239.058594 94.425781 241.859375 95.847656 C 242.273438 96.878906 242.671875 97.929688 243.058594 99.003906 C 239.457031 97.25 236.269531 94.710938 233.46875 91.839844 C 233.808594 91.175781 234.179688 90.53125 234.582031 89.898438 Z M 235.9375 87.996094 C 237.144531 89.332031 238.503906 90.574219 239.988281 91.589844 C 240.417969 92.484375 240.835938 93.410156 241.238281 94.359375 C 238.929688 92.972656 236.921875 91.0625 235.164062 89.035156 C 235.410156 88.683594 235.667969 88.335938 235.9375 87.996094 Z M 260.136719 107.738281 C 258.550781 112.851562 255.277344 117.308594 250.925781 120.398438 C 250.753906 119.484375 250.574219 118.5625 250.386719 117.636719 C 254.28125 113.921875 257.285156 108.257812 258.40625 104.074219 C 259.066406 105.265625 259.640625 106.492188 260.136719 107.738281 Z M 261.101562 110.578125 C 259.042969 115.183594 255.496094 119.558594 251.277344 122.320312 C 251.226562 122.042969 251.179688 121.765625 251.128906 121.484375 C 255.496094 118.5 258.867188 114.203125 260.6875 109.246094 C 260.835938 109.6875 260.972656 110.128906 261.101562 110.578125 Z M 260.414062 127.671875 C 258.40625 130.328125 255.847656 132.515625 252.980469 134.199219 C 252.941406 133.859375 252.902344 133.519531 252.863281 133.171875 C 256.015625 131.199219 259.011719 128.570312 261.203125 125.464844 C 260.980469 126.210938 260.714844 126.949219 260.414062 127.671875 Z M 232.542969 115.9375 C 237.039062 120.078125 243.257812 122.785156 249.253906 123.4375 C 249.472656 124.71875 249.675781 125.980469 249.859375 127.226562 C 244.09375 126.839844 238.289062 124.210938 234.164062 120.164062 C 233.542969 118.773438 233.007812 117.378906 232.542969 115.9375 Z M 230.800781 107.691406 C 235.441406 111.992188 241.480469 115.285156 247.800781 115.921875 C 248.085938 117.253906 248.359375 118.585938 248.609375 119.90625 C 242.210938 118.9375 235.382812 115.410156 231.191406 110.535156 C 231.023438 109.589844 230.894531 108.640625 230.800781 107.691406 Z M 248.808594 120.949219 C 248.898438 121.433594 248.988281 121.921875 249.070312 122.402344 C 242.777344 121.652344 236.265625 118.574219 231.945312 113.933594 C 231.8125 113.429688 231.6875 112.929688 231.570312 112.421875 C 236.035156 116.910156 242.636719 120.097656 248.808594 120.949219 Z M 250.011719 128.242188 C 250.058594 128.585938 250.109375 128.925781 250.15625 129.269531 C 244.945312 128.695312 239.839844 126.339844 235.648438 123.167969 C 235.527344 122.949219 235.410156 122.726562 235.292969 122.503906 C 239.445312 125.832031 244.75 127.9375 250.011719 128.242188 Z M 261.910156 122.363281 C 259.894531 126.324219 256.445312 129.664062 252.730469 132.0625 C 252.601562 130.988281 252.457031 129.886719 252.300781 128.765625 C 256.089844 126.84375 259.726562 123.433594 262.1875 119.773438 C 262.140625 120.644531 262.046875 121.507812 261.910156 122.363281 Z M 262.214844 117.828125 C 259.957031 121.757812 256.160156 125.59375 252.148438 127.714844 C 252.09375 127.332031 252.035156 126.949219 251.976562 126.566406 C 256.140625 124.226562 259.855469 120.878906 262.167969 116.6875 C 262.191406 117.070312 262.207031 117.449219 262.214844 117.828125 Z M 261.984375 114.8125 C 259.917969 119.382812 256.128906 123.007812 251.8125 125.503906 C 251.699219 124.804688 251.582031 124.101562 251.464844 123.390625 C 255.65625 120.757812 259.242188 116.589844 261.492188 112.09375 C 261.699219 113 261.867188 113.90625 261.984375 114.8125 Z M 250.144531 116.46875 C 250.0625 116.0625 249.972656 115.652344 249.882812 115.246094 C 253.101562 111.714844 256.15625 106.660156 257.027344 101.808594 C 257.25 102.140625 257.464844 102.472656 257.671875 102.8125 C 256.929688 106.476562 254.113281 112.480469 250.144531 116.46875 Z M 249.617188 114.035156 C 249.34375 112.832031 249.058594 111.625 248.757812 110.421875 C 251.363281 106.445312 253.199219 100.875 253.679688 97.484375 C 254.546875 98.472656 255.386719 99.515625 256.1875 100.609375 C 255.671875 105.347656 252.769531 110.410156 249.617188 114.035156 Z M 248.417969 109.078125 C 248.277344 108.542969 248.136719 108.007812 247.992188 107.476562 C 249.746094 104.039062 251.410156 99.507812 251.886719 95.566406 C 252.1875 95.871094 252.484375 96.179688 252.78125 96.496094 C 252.542969 99.371094 250.925781 104.941406 248.417969 109.078125 Z M 247.589844 106.023438 C 247.035156 104.070312 246.445312 102.148438 245.816406 100.273438 C 246.953125 97.675781 247.691406 94.867188 247.910156 92.039062 C 248.96875 92.863281 249.988281 93.742188 250.96875 94.671875 C 250.683594 98.304688 249.222656 102.589844 247.589844 106.023438 Z M 245.320312 98.835938 C 245.214844 98.539062 245.113281 98.246094 245.003906 97.953125 C 245.855469 95.6875 246.363281 93.363281 246.441406 90.941406 C 246.613281 91.0625 246.78125 91.183594 246.949219 91.308594 C 246.828125 93.871094 246.25 96.433594 245.320312 98.835938 Z M 244.453125 96.472656 C 242.097656 90.289062 243.476562 95.550781 243.5 89.015625 C 244.160156 89.414062 244.8125 89.824219 245.449219 90.253906 C 245.449219 92.398438 245.097656 94.460938 244.453125 96.472656 Z M 242.34375 91.429688 C 241.546875 89.703125 241.996094 91.140625 241.976562 88.144531 C 242.148438 88.238281 242.316406 88.332031 242.488281 88.429688 C 242.507812 89.425781 242.472656 90.4375 242.34375 91.429688 Z M 243.527344 100.335938 C 243.65625 100.703125 243.78125 101.074219 243.90625 101.445312 C 239.628906 99.757812 235.816406 96.9375 232.644531 93.632812 C 232.757812 93.351562 232.878906 93.074219 233.003906 92.800781 C 236.054688 95.886719 239.554688 98.574219 243.527344 100.335938 Z M 232.246094 94.664062 C 235.644531 98.121094 239.730469 101.027344 244.304688 102.671875 C 244.703125 103.917969 245.082031 105.1875 245.449219 106.464844 C 240.011719 105.015625 235.011719 101.242188 231.558594 96.871094 C 231.753906 96.125 231.984375 95.390625 232.246094 94.664062 Z M 245.761719 107.582031 C 245.953125 108.28125 246.140625 108.988281 246.324219 109.695312 C 240.460938 108.339844 234.71875 104.09375 230.996094 99.570312 C 231.074219 99.078125 231.164062 98.589844 231.265625 98.105469 C 234.949219 102.523438 240.15625 106.253906 245.761719 107.582031 Z M 246.601562 110.785156 C 246.792969 111.554688 246.980469 112.320312 247.160156 113.09375 C 241.007812 112.332031 234.660156 108.25 230.640625 103.644531 C 230.660156 102.726562 230.71875 101.816406 230.816406 100.910156 C 234.789062 105.449219 240.664062 109.570312 246.601562 110.785156 Z M 247.402344 114.132812 C 247.460938 114.382812 247.515625 114.636719 247.574219 114.886719 C 241.21875 114.152344 235.1875 110.636719 230.683594 106.191406 C 230.664062 105.839844 230.652344 105.488281 230.644531 105.140625 C 234.914062 109.65625 241.277344 113.492188 247.402344 114.132812 Z M 250.292969 130.292969 C 250.425781 131.277344 250.542969 132.246094 250.652344 133.1875 C 246.398438 132.667969 242.230469 130.851562 238.867188 128.15625 C 238.167969 127.234375 237.5 126.269531 236.871094 125.261719 C 240.894531 127.921875 245.558594 129.820312 250.292969 130.292969 Z M 250.769531 134.214844 C 250.789062 134.417969 250.8125 134.621094 250.832031 134.820312 C 247.730469 134.449219 244.734375 133.3125 242.011719 131.746094 C 239.714844 129.480469 243.441406 133.398438 250.769531 134.214844 Z M 253.242188 136.808594 C 253.195312 136.3125 253.144531 135.808594 253.09375 135.292969 C 255.011719 134.210938 256.804688 132.90625 258.402344 131.402344 C 257.058594 133.402344 255.347656 135.230469 253.242188 136.808594 Z M 240.957031 87.601562 C 240.96875 87.941406 240.972656 88.285156 240.96875 88.625 C 240.71875 88.148438 240.464844 87.679688 240.207031 87.222656 C 240.460938 87.347656 240.710938 87.476562 240.957031 87.601562 Z M 237.214844 86.507812 C 237.816406 87.464844 238.394531 88.476562 238.953125 89.535156 C 238.109375 88.816406 237.316406 88.03125 236.585938 87.210938 C 236.789062 86.976562 237 86.742188 237.214844 86.507812 Z M 245.019531 134.328125 C 246.921875 135.089844 248.910156 135.625 250.9375 135.84375 C 250.992188 136.398438 251.042969 136.945312 251.089844 137.480469 C 248.984375 136.828125 246.945312 135.746094 245.019531 134.328125 Z M 252.40625 149.34375 C 252.996094 153.492188 254.40625 157.371094 256.640625 160.953125 C 256.238281 161.726562 255.851562 162.511719 255.480469 163.300781 C 253.167969 159.828125 251.699219 155.972656 251.230469 151.820312 C 251.582031 150.976562 251.976562 150.152344 252.40625 149.34375 Z M 249.496094 168.460938 C 250.207031 169.722656 251.070312 170.902344 252.109375 171.972656 C 251.828125 172.886719 251.566406 173.804688 251.324219 174.730469 C 250.484375 172.632812 249.878906 170.539062 249.496094 168.460938 Z M 273.667969 218.644531 C 273.234375 210.664062 275.070312 202.03125 278.824219 195.082031 C 279.371094 194.980469 279.917969 194.90625 280.46875 194.863281 C 277.945312 200.820312 276.867188 207.21875 276.625 213.664062 C 275.765625 215.308594 274.785156 216.980469 273.667969 218.644531 Z M 275.832031 195.917969 C 276.394531 195.707031 276.964844 195.523438 277.535156 195.371094 C 273.777344 202.71875 272.054688 211.75 272.75 219.972656 C 272.113281 220.863281 271.433594 221.753906 270.714844 222.640625 C 270.199219 213.902344 271.902344 203.578125 275.832031 195.917969 Z M 266.871094 226.871094 C 266.027344 227.710938 265.132812 228.535156 264.195312 229.347656 C 262.777344 220.039062 264.007812 209.171875 268.070312 200.726562 C 268.957031 199.953125 269.867188 199.246094 270.792969 198.605469 C 267.007812 207.332031 264.941406 217.488281 266.871094 226.871094 Z M 266.195312 202.46875 C 262.75 210.921875 261.832031 221.253906 263.296875 230.105469 C 262.492188 230.769531 261.65625 231.425781 260.785156 232.0625 C 257.863281 220.320312 262.910156 206.035156 264.402344 204.359375 C 264.988281 203.703125 265.585938 203.074219 266.195312 202.46875 Z M 257.484375 234.3125 C 255.777344 227.835938 256.3125 218.53125 258.933594 211.742188 C 259.894531 210.199219 260.910156 208.710938 261.980469 207.304688 C 259.03125 215.203125 257.847656 224.882812 259.910156 232.695312 C 259.125 233.246094 258.316406 233.785156 257.484375 234.3125 Z M 254.269531 236.199219 C 253.011719 230.925781 253.546875 224.355469 255.183594 218.75 C 255.660156 217.710938 256.164062 216.683594 256.695312 215.671875 C 255.167969 222.058594 255.101562 229.460938 256.589844 234.863281 C 255.839844 235.320312 255.066406 235.765625 254.269531 236.199219 Z M 251.5 237.621094 C 251 235.417969 250.898438 233.105469 251.09375 230.800781 C 251.578125 228.613281 252.214844 226.394531 252.988281 224.1875 C 252.367188 228.492188 252.410156 232.925781 253.355469 236.691406 C 252.75 237.007812 252.128906 237.316406 251.5 237.621094 Z M 250.214844 236.179688 C 250.304688 236.8125 250.421875 237.441406 250.570312 238.0625 C 250.398438 238.140625 250.230469 238.21875 250.058594 238.296875 C 250.089844 237.601562 250.144531 236.894531 250.214844 236.179688 Z M 267.730469 226.007812 C 265.972656 216.503906 268.339844 206.25 272.339844 197.609375 C 273.027344 197.199219 273.722656 196.835938 274.421875 196.507812 C 270.632812 204.515625 269.082031 215.019531 269.785156 223.75 C 269.132812 224.507812 268.449219 225.261719 267.730469 226.007812 Z M 277.753906 211.363281 C 278.160156 205.679688 279.285156 200.066406 281.585938 194.820312 C 281.785156 194.816406 281.984375 194.820312 282.183594 194.828125 C 282.011719 198.511719 280.871094 204.632812 277.753906 211.363281 Z M 277.753906 211.363281 " fill-opacity="1" fill-rule="nonzero"/></g><path fill="#eed0a4" d="M 151.316406 145.550781 C 153.707031 148.734375 154.257812 153.109375 155.003906 156.910156 C 156.507812 164.554688 157.347656 172.355469 158.21875 180.09375 C 162.515625 179.988281 178.324219 180.203125 186.234375 180.015625 L 186.234375 179.894531 C 191.9375 180.28125 212.359375 179.96875 217.335938 180.09375 C 218.207031 172.355469 219.050781 164.554688 220.550781 156.910156 C 221.296875 153.109375 221.847656 148.734375 224.242188 145.550781 C 227.382812 141.367188 233.042969 140.175781 237.980469 141.121094 C 237.648438 136.875 237.621094 132.886719 235.945312 128.863281 C 230.222656 115.136719 216.476562 115.390625 203.894531 115.496094 C 198.007812 115.542969 192.121094 115.472656 186.234375 115.554688 L 186.234375 115.523438 C 181.378906 115.496094 176.523438 115.535156 171.664062 115.496094 C 159.078125 115.390625 145.335938 115.136719 139.613281 128.863281 C 137.9375 132.886719 137.90625 136.875 137.574219 141.121094 C 142.515625 140.175781 148.171875 141.367188 151.316406 145.550781 Z M 151.316406 145.550781 " fill-opacity="1" fill-rule="nonzero"/><path fill="#eed0a4" d="M 221.304688 186.589844 C 208.871094 186.25 196.425781 186.367188 183.988281 186.292969 C 183.988281 186.304688 183.988281 186.3125 183.988281 186.320312 C 174.074219 186.339844 164.160156 186.316406 154.25 186.589844 C 149.957031 186.707031 144.835938 186.144531 140.671875 187.484375 C 138.632812 192.03125 139.476562 197.132812 143.148438 200.617188 C 147.828125 204.605469 154.636719 204.324219 160.394531 204.328125 C 169.003906 204.332031 177.625 204.347656 186.234375 204.265625 L 186.234375 204.230469 C 195.875 204.347656 205.527344 204.332031 215.164062 204.328125 C 220.917969 204.324219 227.726562 204.605469 232.40625 200.617188 C 236.078125 197.132812 236.921875 192.03125 234.882812 187.484375 C 230.722656 186.144531 225.601562 186.707031 221.304688 186.589844 Z M 221.304688 186.589844 " fill-opacity="1" fill-rule="nonzero"/><path fill="#d1884e" d="M 248.3125 168.097656 C 248.277344 161.300781 249.050781 148.761719 243.976562 143.894531 C 239.503906 139.605469 232.265625 139.269531 227.046875 143.179688 C 219.585938 148.765625 219.175781 163.820312 217.191406 180.519531 C 217.503906 180.480469 217.816406 180.375 218.128906 180.40625 C 222.496094 180.851562 227.332031 180.90625 231.144531 183.351562 C 236.773438 186.964844 237.605469 195.796875 232.464844 199.917969 C 226.125 205 217.972656 204.359375 210.289062 204.230469 C 200.902344 204.070312 191.511719 204.5 182.132812 204.03125 C 182.128906 204.105469 182.128906 204.179688 182.125 204.257812 C 176.507812 204.25 170.886719 204.132812 165.269531 204.230469 C 157.585938 204.359375 149.433594 205 143.09375 199.917969 C 137.949219 195.796875 138.78125 186.964844 144.410156 183.351562 C 148.226562 180.90625 153.058594 180.851562 157.425781 180.40625 C 157.738281 180.375 158.050781 180.480469 158.363281 180.519531 C 156.375 163.789062 155.964844 148.761719 148.511719 143.179688 C 143.289062 139.269531 136.054688 139.605469 131.578125 143.894531 C 126.503906 148.761719 127.277344 161.300781 127.242188 168.097656 C 127.199219 175.882812 126.757812 184.449219 128.972656 192 C 130.53125 197.324219 133.859375 202.800781 138.894531 206.566406 C 146.582031 212.3125 156.820312 210.835938 165.75 210.726562 C 171.441406 210.65625 177.113281 210.953125 182.792969 211.101562 C 191.8125 211.429688 200.785156 210.617188 209.804688 210.726562 C 218.734375 210.835938 228.976562 212.3125 236.660156 206.566406 C 241.695312 202.800781 245.023438 197.324219 246.582031 192 C 248.796875 184.449219 248.355469 175.882812 248.3125 168.097656 Z M 248.3125 168.097656 " fill-opacity="1" fill-rule="evenodd"/><path fill="#ebe2d9" d="M 154.226562 119.632812 C 157.722656 118.554688 163.003906 118.445312 168.835938 118.507812 C 168.757812 118.835938 193.785156 118.644531 206.710938 118.507812 C 212.546875 118.445312 217.832031 118.554688 221.332031 119.632812 C 229.304688 122.09375 234.992188 129.351562 235.738281 140.101562 L 238.375 140.257812 L 237.238281 131.792969 L 232.726562 122.875 L 224.058594 117.019531 L 211.871094 115.109375 C 181.53125 115.359375 194.390625 115.363281 163.683594 115.109375 L 151.5 117.019531 L 142.828125 122.875 L 138.320312 131.792969 L 137.179688 140.257812 L 139.816406 140.101562 C 140.5625 129.351562 146.253906 122.09375 154.226562 119.632812 Z M 154.226562 119.632812 " fill-opacity="1" fill-rule="nonzero"/><path fill="#ebe2d9" d="M 248.117188 164.304688 C 247.691406 155.296875 249.042969 142.554688 237.148438 140.738281 C 235.664062 140.511719 234.199219 140.550781 232.746094 140.867188 C 232.671875 139.859375 232.503906 138.984375 232.535156 137.964844 C 224.5 138.570312 221.199219 143.347656 218.96875 151.242188 C 217.226562 157.417969 214.738281 173.480469 214.328125 180.128906 C 209.261719 179.980469 165.195312 180.011719 161.226562 180.128906 C 160.816406 173.480469 158.328125 157.417969 156.585938 151.242188 C 154.355469 143.347656 151.054688 138.570312 143.019531 137.964844 C 143.050781 138.984375 142.886719 139.859375 142.8125 140.867188 C 141.359375 140.550781 139.890625 140.511719 138.410156 140.738281 C 126.515625 142.554688 127.863281 155.296875 127.441406 164.304688 C 127.046875 172.59375 126.449219 180.945312 128.554688 189.0625 C 127.875 183.878906 128.519531 166.425781 130.226562 156.386719 C 129.253906 179.644531 129.238281 195.265625 140.933594 203.378906 C 143.972656 205.488281 147.160156 206.855469 150.859375 207.117188 C 158.535156 207.660156 186.234375 207.375 186.234375 207.292969 C 199.625 207.445312 217.746094 207.605469 224.695312 207.117188 C 228.394531 206.855469 231.582031 205.488281 234.621094 203.378906 C 246.355469 195.238281 246.296875 179.53125 245.328125 156.386719 C 247.039062 166.425781 247.679688 183.878906 247 189.0625 C 249.109375 180.945312 248.507812 172.59375 248.117188 164.304688 Z M 141.6875 199.277344 C 134.386719 195.308594 134.851562 162.890625 134.921875 158.175781 C 134.984375 154.085938 135.027344 145.378906 138.472656 144.148438 C 144.835938 141.871094 151.667969 147.839844 155.554688 160.695312 C 154.140625 150.175781 152.054688 147.40625 148.925781 144.054688 C 147.714844 142.757812 146.160156 141.910156 144.480469 141.335938 C 146.003906 141.71875 147.472656 142.300781 148.726562 143.269531 C 156.648438 149.394531 157.882812 169.921875 158.265625 179.941406 C 159.019531 180.019531 159.714844 180.042969 160.425781 180.148438 C 154.15625 180.304688 146.742188 180.328125 142.140625 184.953125 C 138.121094 188.992188 138.691406 194.703125 141.6875 199.277344 Z M 223.800781 200.777344 C 222.101562 200.820312 155.28125 200.867188 151.753906 200.777344 C 142.355469 200.539062 139.015625 189.503906 145.855469 189.269531 C 147.964844 189.199219 227.589844 189.199219 229.699219 189.269531 C 236.539062 189.503906 233.199219 200.539062 223.800781 200.777344 Z M 233.871094 199.277344 C 236.867188 194.703125 237.4375 188.992188 233.414062 184.953125 C 228.8125 180.328125 221.398438 180.304688 215.128906 180.148438 C 215.84375 180.042969 216.535156 180.019531 217.289062 179.941406 C 217.671875 169.921875 218.90625 149.394531 226.832031 143.269531 C 228.085938 142.300781 229.550781 141.71875 231.074219 141.335938 C 229.398438 141.910156 227.839844 142.757812 226.632812 144.054688 C 223.5 147.40625 221.414062 150.175781 220 160.695312 C 223.890625 147.839844 230.71875 141.871094 237.085938 144.148438 C 240.527344 145.378906 240.574219 154.085938 240.632812 158.175781 C 240.703125 162.890625 241.167969 195.308594 233.871094 199.277344 Z M 233.871094 199.277344 " fill-opacity="1" fill-rule="nonzero"/><g clip-path="url(#34ca303dc4)"><path fill="#9c5a21" d="M 249.515625 176.882812 C 249.449219 168.441406 249.40625 157.976562 248.648438 151.578125 C 247.890625 145.203125 244.011719 141.359375 239.363281 139.953125 C 238.621094 122.289062 228.980469 114.148438 211.511719 114.234375 C 183.535156 114.378906 192.730469 114.382812 164.046875 114.234375 C 146.578125 114.148438 136.933594 122.289062 136.191406 139.953125 C 131.542969 141.359375 127.664062 145.203125 126.910156 151.578125 C 126.148438 157.976562 126.105469 168.441406 126.042969 176.882812 C 125.898438 195.792969 133.246094 210.273438 151.941406 211.757812 L 140.589844 245.835938 C 140.125 247.234375 142.238281 247.9375 142.703125 246.542969 L 154.25 211.875 C 154.835938 211.886719 155.433594 211.886719 156.039062 211.875 C 172.785156 211.578125 221.292969 211.875 221.304688 211.875 L 232.851562 246.542969 C 233.316406 247.9375 235.429688 247.234375 234.964844 245.835938 L 223.613281 211.757812 C 242.3125 210.273438 249.660156 195.789062 249.515625 176.882812 Z M 145.589844 121.867188 C 152.28125 116.042969 161.5 116.449219 168.632812 116.484375 C 173.78125 116.527344 180.925781 116.472656 211.523438 116.460938 C 227.566406 116.457031 236.242188 123.382812 237.109375 139.464844 C 236.007812 139.320312 234.886719 139.296875 233.769531 139.402344 C 233.039062 133.144531 230.761719 127.917969 226.570312 124.015625 C 225.492188 123.011719 223.972656 124.640625 225.050781 125.644531 C 228.890625 129.21875 230.921875 134.03125 231.570312 139.769531 C 220.019531 142.589844 218.921875 154.496094 216.164062 179.027344 C 213.664062 178.976562 213.847656 179.054688 204.710938 179.054688 L 204.824219 118.542969 L 202.597656 118.542969 L 202.484375 179.054688 C 202.082031 179.054688 201.671875 179.054688 201.265625 179.054688 L 201.378906 118.542969 L 199.152344 118.542969 L 199.039062 179.050781 C 196.074219 179.042969 193.117188 179.03125 190.507812 179.019531 L 190.617188 118.542969 L 188.394531 118.542969 L 188.28125 179.007812 C 187.859375 179.007812 187.453125 179.003906 187.0625 179.003906 L 187.171875 118.542969 L 184.9375 118.542969 C 184.945312 121.945312 184.953125 115.082031 184.835938 178.988281 C 181.261719 178.96875 181.972656 179.035156 176.515625 179.050781 L 176.40625 118.542969 L 174.179688 118.542969 L 174.289062 179.054688 C 173.882812 179.054688 173.476562 179.054688 173.070312 179.054688 L 172.957031 118.542969 L 170.730469 118.542969 L 170.84375 179.054688 C 161.683594 179.054688 161.910156 178.976562 159.390625 179.027344 C 156.632812 154.476562 155.53125 142.589844 143.984375 139.769531 C 144.632812 134.03125 146.664062 129.21875 150.503906 125.644531 C 151.582031 124.640625 150.066406 123.011719 148.988281 124.015625 C 144.792969 127.917969 142.515625 133.144531 141.785156 139.402344 C 140.671875 139.296875 139.546875 139.320312 138.445312 139.464844 C 138.890625 131.246094 141.375 125.535156 145.589844 121.867188 Z M 143.238281 185.714844 C 147.320312 181.476562 156.226562 181.171875 162.1875 181.242188 C 210.65625 181.828125 225.859375 179.011719 232.316406 185.714844 C 229.453125 185.195312 147.644531 184.914062 143.238281 185.714844 Z M 234.125 188.546875 C 234.53125 189.582031 234.769531 190.742188 234.835938 192.050781 C 235.117188 197.625 231.421875 200.660156 226.140625 202.457031 C 221.757812 203.566406 157.761719 203.136719 155.492188 203.164062 C 148.425781 203.242188 143.691406 200.269531 141.855469 197.164062 C 140.300781 194.539062 140.492188 190.945312 141.429688 188.546875 C 144.269531 187.199219 148.515625 187.550781 167.84375 187.523438 C 231.449219 187.425781 231.488281 187.296875 234.125 188.546875 Z M 219.554688 209.652344 C 209.199219 209.464844 166.097656 209.46875 156 209.652344 C 136.082031 210.007812 128.117188 196.582031 128.269531 176.902344 C 128.332031 168.542969 128.367188 158.179688 129.121094 151.839844 C 130.625 139.167969 146.796875 138.4375 151.550781 148.445312 C 154.855469 155.410156 156.222656 170.667969 157.160156 179.101562 C 155.5625 179.183594 154.066406 179.320312 152.667969 179.519531 C 149.484375 160.992188 148.941406 147.652344 135.507812 148.382812 C 134.839844 148.417969 134.890625 149.429688 135.5625 149.394531 C 147.839844 148.722656 148.378906 160.507812 151.667969 179.671875 C 151.1875 179.753906 150.71875 179.84375 150.261719 179.9375 C 149.695312 176.359375 147.542969 163.472656 145.386719 159.476562 C 142.84375 154.761719 138.441406 153.585938 135.097656 153.246094 C 134.433594 153.179688 134.332031 154.1875 134.996094 154.253906 C 138.078125 154.566406 142.152344 155.613281 144.496094 159.957031 C 146.632812 163.914062 148.738281 176.734375 149.273438 180.167969 C 148.566406 180.34375 148.074219 180.492188 147.558594 180.660156 C 144.675781 162.855469 144.308594 159.125 135.082031 157.496094 C 134.421875 157.378906 134.246094 158.375 134.90625 158.492188 C 143.378906 159.992188 143.664062 162.921875 146.589844 181.007812 C 141.546875 182.949219 138.777344 186.410156 138.496094 191.9375 C 138.4375 193.101562 138.484375 194.613281 139.007812 196.234375 C 137.03125 193.976562 135.699219 191.320312 135.191406 188.515625 C 132.929688 176 132.5625 151.328125 134.390625 147.5 C 135.027344 146.167969 133.015625 145.210938 132.382812 146.539062 C 130.117188 151.28125 130.847656 177.007812 133 188.910156 C 134.292969 196.050781 140.300781 202.417969 148.789062 204.59375 C 153.863281 206.207031 163.648438 204.757812 220.039062 205.390625 C 231.863281 205.523438 240.921875 197.933594 242.554688 188.910156 C 244.722656 176.914062 245.425781 151.253906 243.171875 146.539062 C 242.539062 145.210938 240.53125 146.167969 241.164062 147.5 C 242.992188 151.324219 242.632812 175.96875 240.363281 188.515625 C 239.855469 191.320312 238.523438 193.976562 236.546875 196.234375 C 237.074219 194.613281 237.117188 193.101562 237.058594 191.9375 C 236.777344 186.410156 234.007812 182.949219 228.96875 181.007812 C 231.894531 162.917969 232.183594 159.988281 240.648438 158.492188 C 241.308594 158.375 241.132812 157.378906 240.472656 157.496094 C 231.230469 159.128906 230.871094 162.894531 228 180.660156 C 227.496094 180.496094 227.011719 180.347656 226.28125 180.167969 C 226.816406 176.734375 228.921875 163.914062 231.058594 159.957031 C 233.402344 155.613281 237.480469 154.566406 240.558594 154.253906 C 241.226562 154.1875 241.121094 153.179688 240.457031 153.246094 C 237.113281 153.585938 232.714844 154.761719 230.167969 159.476562 C 228.011719 163.472656 225.863281 176.359375 225.296875 179.9375 C 224.839844 179.84375 224.371094 179.753906 223.886719 179.671875 C 227.152344 160.664062 227.671875 148.71875 239.996094 149.394531 C 240.664062 149.429688 240.71875 148.417969 240.050781 148.382812 C 226.625 147.652344 226.078125 160.9375 222.886719 179.519531 C 221.492188 179.320312 219.992188 179.183594 218.394531 179.101562 C 219.335938 170.667969 220.699219 155.410156 224.007812 148.445312 C 228.757812 138.4375 244.933594 139.167969 246.4375 151.839844 C 247.1875 158.179688 247.222656 168.542969 247.289062 176.902344 C 247.441406 196.582031 239.472656 210.007812 219.554688 209.652344 Z M 219.554688 209.652344 " fill-opacity="1" fill-rule="nonzero"/></g><g fill="#e59a5e" fill-opacity="1"><g transform="translate(112.701062, 277.835754)"><g><path d="M 10.03125 -6.0625 L 8.03125 -11.71875 L 6.015625 -6.0625 Z M 15.96875 0 L 12.203125 0 L 11.0625 -3.203125 L 5.015625 -3.203125 L 3.875 0 L 0.109375 0 L 6.5625 -15.875 L 9.53125 -15.875 Z M 15.96875 0 "/></g></g></g><g fill="#e59a5e" fill-opacity="1"><g transform="translate(133.454921, 277.835754)"><g><path d="M 9.0625 -4.640625 C 9.0625 -5.160156 8.867188 -5.609375 8.484375 -5.984375 C 8.097656 -6.367188 7.644531 -6.5625 7.125 -6.5625 L 4.90625 -6.5625 L 4.90625 -2.734375 L 7.125 -2.734375 C 7.644531 -2.734375 8.097656 -2.921875 8.484375 -3.296875 C 8.867188 -3.671875 9.0625 -4.117188 9.0625 -4.640625 Z M 7.953125 -11.28125 C 7.953125 -11.789062 7.769531 -12.222656 7.40625 -12.578125 C 7.039062 -12.941406 6.609375 -13.125 6.109375 -13.125 L 4.90625 -13.125 L 4.90625 -9.4375 L 6.109375 -9.4375 C 6.609375 -9.4375 7.039062 -9.617188 7.40625 -9.984375 C 7.769531 -10.347656 7.953125 -10.78125 7.953125 -11.28125 Z M 12.625 -4.546875 C 12.625 -3.179688 12.203125 -2.082031 11.359375 -1.25 C 10.523438 -0.414062 9.34375 0 7.8125 0 L 1.40625 0 L 1.40625 -15.875 L 6.859375 -15.875 C 7.765625 -15.875 8.546875 -15.691406 9.203125 -15.328125 C 9.867188 -14.972656 10.382812 -14.492188 10.75 -13.890625 C 11.113281 -13.296875 11.296875 -12.632812 11.296875 -11.90625 C 11.296875 -11.09375 11.128906 -10.394531 10.796875 -9.8125 C 10.460938 -9.226562 10 -8.804688 9.40625 -8.546875 C 10.289062 -8.335938 11.046875 -7.882812 11.671875 -7.1875 C 12.304688 -6.5 12.625 -5.617188 12.625 -4.546875 Z M 12.625 -4.546875 "/></g></g></g><g fill="#e59a5e" fill-opacity="1"><g transform="translate(150.987337, 277.835754)"><g><path d="M 1.40625 0 L 1.40625 -15.875 L 4.90625 -15.875 L 4.90625 -3.171875 L 10.59375 -3.171875 L 10.59375 0 Z M 1.40625 0 "/></g></g></g><g fill="#e59a5e" fill-opacity="1"><g transform="translate(167.07243, 277.835754)"><g><path d="M 10.03125 -6.0625 L 8.03125 -11.71875 L 6.015625 -6.0625 Z M 15.96875 0 L 12.203125 0 L 11.0625 -3.203125 L 5.015625 -3.203125 L 3.875 0 L 0.109375 0 L 6.5625 -15.875 L 9.53125 -15.875 Z M 15.96875 0 "/></g></g></g><g fill="#e59a5e" fill-opacity="1"><g transform="translate(187.82629, 277.835754)"><g><path d="M 4.90625 -7.09375 L 4.90625 0 L 1.40625 0 L 1.40625 -15.875 L 4.90625 -15.875 L 4.90625 -8.78125 L 9.921875 -15.875 L 14.40625 -15.875 L 8.3125 -7.9375 L 14.640625 0 L 9.921875 0 Z M 4.90625 -7.09375 "/></g></g></g><g fill="#e59a5e" fill-opacity="1"><g transform="translate(206.899389, 277.835754)"><g><path d="M 10.03125 -6.0625 L 8.03125 -11.71875 L 6.015625 -6.0625 Z M 15.96875 0 L 12.203125 0 L 11.0625 -3.203125 L 5.015625 -3.203125 L 3.875 0 L 0.109375 0 L 6.5625 -15.875 L 9.53125 -15.875 Z M 15.96875 0 "/></g></g></g><g fill="#e59a5e" fill-opacity="1"><g transform="translate(227.653248, 277.835754)"><g><path d="M 7.5625 -2.46875 C 7.9375 -2.46875 8.34375 -2.523438 8.78125 -2.640625 C 9.21875 -2.765625 9.59375 -2.960938 9.90625 -3.234375 C 10.226562 -3.503906 10.390625 -3.875 10.390625 -4.34375 C 10.390625 -4.78125 10.222656 -5.128906 9.890625 -5.390625 C 9.554688 -5.660156 9.113281 -5.878906 8.5625 -6.046875 C 8.019531 -6.210938 7.425781 -6.367188 6.78125 -6.515625 C 6.132812 -6.671875 5.484375 -6.851562 4.828125 -7.0625 C 4.179688 -7.269531 3.582031 -7.546875 3.03125 -7.890625 C 2.488281 -8.234375 2.050781 -8.675781 1.71875 -9.21875 C 1.382812 -9.757812 1.21875 -10.453125 1.21875 -11.296875 C 1.21875 -12.117188 1.382812 -12.828125 1.71875 -13.421875 C 2.0625 -14.023438 2.515625 -14.523438 3.078125 -14.921875 C 3.648438 -15.328125 4.289062 -15.625 5 -15.8125 C 5.707031 -16.007812 6.421875 -16.109375 7.140625 -16.109375 C 8.234375 -16.109375 9.253906 -15.9375 10.203125 -15.59375 C 11.148438 -15.25 11.921875 -14.707031 12.515625 -13.96875 C 13.117188 -13.226562 13.4375 -12.253906 13.46875 -11.046875 L 10.078125 -11.046875 C 9.984375 -11.867188 9.695312 -12.4375 9.21875 -12.75 C 8.738281 -13.070312 8.0625 -13.234375 7.1875 -13.234375 C 6.863281 -13.234375 6.519531 -13.175781 6.15625 -13.0625 C 5.789062 -12.957031 5.476562 -12.785156 5.21875 -12.546875 C 4.957031 -12.304688 4.828125 -11.984375 4.828125 -11.578125 C 4.828125 -11.171875 4.992188 -10.847656 5.328125 -10.609375 C 5.671875 -10.378906 6.113281 -10.1875 6.65625 -10.03125 C 7.195312 -9.875 7.796875 -9.726562 8.453125 -9.59375 C 9.109375 -9.457031 9.757812 -9.285156 10.40625 -9.078125 C 11.050781 -8.878906 11.644531 -8.601562 12.1875 -8.25 C 12.726562 -7.90625 13.164062 -7.453125 13.5 -6.890625 C 13.832031 -6.328125 14 -5.609375 14 -4.734375 C 14 -3.804688 13.8125 -3.015625 13.4375 -2.359375 C 13.070312 -1.703125 12.570312 -1.175781 11.9375 -0.78125 C 11.3125 -0.382812 10.601562 -0.09375 9.8125 0.09375 C 9.03125 0.28125 8.234375 0.375 7.421875 0.375 C 6.253906 0.375 5.160156 0.175781 4.140625 -0.21875 C 3.117188 -0.613281 2.289062 -1.222656 1.65625 -2.046875 C 1.03125 -2.878906 0.710938 -3.941406 0.703125 -5.234375 L 4.25 -5.234375 C 4.289062 -4.285156 4.640625 -3.585938 5.296875 -3.140625 C 5.953125 -2.691406 6.707031 -2.46875 7.5625 -2.46875 Z M 7.5625 -2.46875 "/></g></g></g><g fill="#e59a5e" fill-opacity="1"><g transform="translate(247.029822, 277.835754)"><g><path d="M 10.125 -15.875 L 13.859375 -15.875 L 13.859375 0 L 10.125 0 L 10.125 -6.375 L 4.90625 -6.375 L 4.90625 0 L 1.40625 0 L 1.40625 -15.875 L 4.90625 -15.875 L 4.90625 -9.546875 L 10.125 -9.546875 Z M 10.125 -15.875 "/></g></g></g><g fill="#c78045" fill-opacity="1"><g transform="translate(109.794593, 298.085752)"><g><path d="M 11.625 0 L 9.515625 0 L 8.484375 -6 L 6.78125 0 L 4.90625 0 L 3.203125 -6 L 2.171875 0 L 0.0625 0 L 1.75 -8.703125 L 4.03125 -8.703125 L 5.84375 -2.59375 L 7.65625 -8.703125 L 9.9375 -8.703125 Z M 11.625 0 "/></g></g></g><g fill="#c78045" fill-opacity="1"><g transform="translate(124.039829, 298.085752)"><g><path d="M 7.484375 -4.359375 C 7.484375 -4.816406 7.363281 -5.238281 7.125 -5.625 C 6.882812 -6.007812 6.570312 -6.320312 6.1875 -6.5625 C 5.800781 -6.800781 5.378906 -6.921875 4.921875 -6.921875 C 4.484375 -6.921875 4.066406 -6.800781 3.671875 -6.5625 C 3.273438 -6.320312 2.957031 -6.007812 2.71875 -5.625 C 2.488281 -5.238281 2.375 -4.816406 2.375 -4.359375 C 2.375 -3.921875 2.488281 -3.503906 2.71875 -3.109375 C 2.957031 -2.710938 3.273438 -2.394531 3.671875 -2.15625 C 4.066406 -1.914062 4.484375 -1.796875 4.921875 -1.796875 C 5.378906 -1.796875 5.800781 -1.914062 6.1875 -2.15625 C 6.570312 -2.394531 6.882812 -2.710938 7.125 -3.109375 C 7.363281 -3.503906 7.484375 -3.921875 7.484375 -4.359375 Z M 9.40625 -4.34375 C 9.40625 -3.75 9.285156 -3.179688 9.046875 -2.640625 C 8.804688 -2.097656 8.476562 -1.617188 8.0625 -1.203125 C 7.65625 -0.796875 7.179688 -0.472656 6.640625 -0.234375 C 6.097656 0.00390625 5.523438 0.125 4.921875 0.125 C 4.328125 0.125 3.757812 0.00390625 3.21875 -0.234375 C 2.675781 -0.472656 2.195312 -0.796875 1.78125 -1.203125 C 1.375 -1.617188 1.050781 -2.097656 0.8125 -2.640625 C 0.570312 -3.179688 0.453125 -3.75 0.453125 -4.34375 C 0.453125 -4.957031 0.570312 -5.53125 0.8125 -6.0625 C 1.050781 -6.601562 1.375 -7.078125 1.78125 -7.484375 C 2.195312 -7.898438 2.675781 -8.226562 3.21875 -8.46875 C 3.757812 -8.707031 4.328125 -8.828125 4.921875 -8.828125 C 5.523438 -8.828125 6.097656 -8.707031 6.640625 -8.46875 C 7.179688 -8.226562 7.65625 -7.898438 8.0625 -7.484375 C 8.476562 -7.078125 8.804688 -6.601562 9.046875 -6.0625 C 9.285156 -5.53125 9.40625 -4.957031 9.40625 -4.34375 Z M 9.40625 -4.34375 "/></g></g></g><g fill="#c78045" fill-opacity="1"><g transform="translate(136.45512, 298.085752)"><g><path d="M 2.65625 -1.765625 L 3.234375 -1.765625 C 3.734375 -1.765625 4.164062 -1.878906 4.53125 -2.109375 C 4.90625 -2.335938 5.195312 -2.648438 5.40625 -3.046875 C 5.613281 -3.441406 5.71875 -3.875 5.71875 -4.34375 C 5.71875 -4.832031 5.613281 -5.269531 5.40625 -5.65625 C 5.195312 -6.050781 4.90625 -6.359375 4.53125 -6.578125 C 4.164062 -6.804688 3.734375 -6.921875 3.234375 -6.921875 L 2.65625 -6.921875 Z M 0.765625 -8.703125 L 3.359375 -8.703125 C 3.972656 -8.703125 4.539062 -8.585938 5.0625 -8.359375 C 5.582031 -8.140625 6.039062 -7.832031 6.4375 -7.4375 C 6.832031 -7.050781 7.132812 -6.59375 7.34375 -6.0625 C 7.5625 -5.53125 7.671875 -4.957031 7.671875 -4.34375 C 7.671875 -3.726562 7.5625 -3.15625 7.34375 -2.625 C 7.132812 -2.101562 6.832031 -1.644531 6.4375 -1.25 C 6.050781 -0.863281 5.59375 -0.554688 5.0625 -0.328125 C 4.539062 -0.109375 3.972656 0 3.359375 0 L 0.765625 0 Z M 0.765625 -8.703125 "/></g></g></g><g fill="#c78045" fill-opacity="1"><g transform="translate(147.142845, 298.085752)"><g><path d="M 5.8125 -1.734375 L 5.8125 0 L 0.765625 0 L 0.765625 -8.703125 L 5.8125 -8.703125 L 5.8125 -6.96875 L 2.6875 -6.96875 L 2.6875 -5.234375 L 5.6875 -5.234375 L 5.6875 -3.5 L 2.6875 -3.5 L 2.6875 -1.734375 Z M 5.8125 -1.734375 "/></g></g></g><g fill="#c78045" fill-opacity="1"><g transform="translate(156.282151, 298.085752)"><g><path d="M 2.6875 -3.109375 L 2.6875 0 L 0.765625 0 L 0.765625 -8.703125 L 4.03125 -8.703125 C 4.5 -8.703125 4.9375 -8.582031 5.34375 -8.34375 C 5.75 -8.113281 6.070312 -7.789062 6.3125 -7.375 C 6.5625 -6.957031 6.6875 -6.46875 6.6875 -5.90625 C 6.6875 -5.425781 6.597656 -5 6.421875 -4.625 C 6.242188 -4.25 6.003906 -3.941406 5.703125 -3.703125 C 5.410156 -3.460938 5.078125 -3.296875 4.703125 -3.203125 L 7.203125 0 L 4.765625 0 L 2.703125 -3.109375 Z M 3.71875 -7.1875 L 2.6875 -7.1875 L 2.6875 -4.625 L 3.71875 -4.625 C 4 -4.625 4.257812 -4.734375 4.5 -4.953125 C 4.738281 -5.171875 4.859375 -5.488281 4.859375 -5.90625 C 4.859375 -6.3125 4.738281 -6.625 4.5 -6.84375 C 4.257812 -7.070312 4 -7.1875 3.71875 -7.1875 Z M 3.71875 -7.1875 "/></g></g></g><g fill="#c78045" fill-opacity="1"><g transform="translate(165.894941, 298.085752)"><g><path d="M 7.59375 0 L 5.6875 0 L 2.6875 -5.421875 L 2.6875 0 L 0.765625 0 L 0.765625 -8.703125 L 2.6875 -8.703125 L 5.6875 -3.28125 L 5.6875 -8.703125 L 7.59375 -8.703125 Z M 7.59375 0 "/></g></g></g><g fill="#c78045" fill-opacity="1"><g transform="translate(176.825805, 298.085752)"><g/></g></g><g fill="#c78045" fill-opacity="1"><g transform="translate(182.586754, 298.085752)"><g><path d="M 5.6875 -3.5 L 2.6875 -3.5 L 2.6875 0 L 0.765625 0 L 0.765625 -8.703125 L 5.8125 -8.703125 L 5.8125 -6.96875 L 2.6875 -6.96875 L 2.6875 -5.234375 L 5.6875 -5.234375 Z M 5.6875 -3.5 "/></g></g></g><g fill="#c78045" fill-opacity="1"><g transform="translate(191.598089, 298.085752)"><g><path d="M 5.84375 -8.703125 L 7.765625 -8.703125 L 7.765625 -3.390625 C 7.765625 -2.234375 7.445312 -1.359375 6.8125 -0.765625 C 6.1875 -0.171875 5.304688 0.125 4.171875 0.125 C 3.035156 0.125 2.148438 -0.171875 1.515625 -0.765625 C 0.890625 -1.359375 0.578125 -2.234375 0.578125 -3.390625 L 0.578125 -8.703125 L 2.5 -8.703125 L 2.5 -3.671875 C 2.5 -3.078125 2.613281 -2.613281 2.84375 -2.28125 C 3.082031 -1.957031 3.523438 -1.796875 4.171875 -1.796875 C 4.828125 -1.796875 5.269531 -1.957031 5.5 -2.28125 C 5.726562 -2.613281 5.84375 -3.078125 5.84375 -3.671875 Z M 5.84375 -8.703125 "/></g></g></g><g fill="#c78045" fill-opacity="1"><g transform="translate(202.503352, 298.085752)"><g><path d="M 2.6875 -3.109375 L 2.6875 0 L 0.765625 0 L 0.765625 -8.703125 L 4.03125 -8.703125 C 4.5 -8.703125 4.9375 -8.582031 5.34375 -8.34375 C 5.75 -8.113281 6.070312 -7.789062 6.3125 -7.375 C 6.5625 -6.957031 6.6875 -6.46875 6.6875 -5.90625 C 6.6875 -5.425781 6.597656 -5 6.421875 -4.625 C 6.242188 -4.25 6.003906 -3.941406 5.703125 -3.703125 C 5.410156 -3.460938 5.078125 -3.296875 4.703125 -3.203125 L 7.203125 0 L 4.765625 0 L 2.703125 -3.109375 Z M 3.71875 -7.1875 L 2.6875 -7.1875 L 2.6875 -4.625 L 3.71875 -4.625 C 4 -4.625 4.257812 -4.734375 4.5 -4.953125 C 4.738281 -5.171875 4.859375 -5.488281 4.859375 -5.90625 C 4.859375 -6.3125 4.738281 -6.625 4.5 -6.84375 C 4.257812 -7.070312 4 -7.1875 3.71875 -7.1875 Z M 3.71875 -7.1875 "/></g></g></g><g fill="#c78045" fill-opacity="1"><g transform="translate(212.116143, 298.085752)"><g><path d="M 7.59375 0 L 5.6875 0 L 2.6875 -5.421875 L 2.6875 0 L 0.765625 0 L 0.765625 -8.703125 L 2.6875 -8.703125 L 5.6875 -3.28125 L 5.6875 -8.703125 L 7.59375 -8.703125 Z M 7.59375 0 "/></g></g></g><g fill="#c78045" fill-opacity="1"><g transform="translate(223.047012, 298.085752)"><g><path d="M 2.6875 0 L 0.765625 0 L 0.765625 -8.703125 L 2.6875 -8.703125 Z M 2.6875 0 "/></g></g></g><g fill="#c78045" fill-opacity="1"><g transform="translate(229.063903, 298.085752)"><g><path d="M 4.46875 -6.96875 L 4.46875 0 L 2.546875 0 L 2.546875 -6.96875 L 0.0625 -6.96875 L 0.0625 -8.703125 L 6.953125 -8.703125 L 6.953125 -6.96875 Z M 4.46875 -6.96875 "/></g></g></g><g fill="#c78045" fill-opacity="1"><g transform="translate(238.638304, 298.085752)"><g><path d="M 5.84375 -8.703125 L 7.765625 -8.703125 L 7.765625 -3.390625 C 7.765625 -2.234375 7.445312 -1.359375 6.8125 -0.765625 C 6.1875 -0.171875 5.304688 0.125 4.171875 0.125 C 3.035156 0.125 2.148438 -0.171875 1.515625 -0.765625 C 0.890625 -1.359375 0.578125 -2.234375 0.578125 -3.390625 L 0.578125 -8.703125 L 2.5 -8.703125 L 2.5 -3.671875 C 2.5 -3.078125 2.613281 -2.613281 2.84375 -2.28125 C 3.082031 -1.957031 3.523438 -1.796875 4.171875 -1.796875 C 4.828125 -1.796875 5.269531 -1.957031 5.5 -2.28125 C 5.726562 -2.613281 5.84375 -3.078125 5.84375 -3.671875 Z M 5.84375 -8.703125 "/></g></g></g><g fill="#c78045" fill-opacity="1"><g transform="translate(249.543573, 298.085752)"><g><path d="M 2.6875 -3.109375 L 2.6875 0 L 0.765625 0 L 0.765625 -8.703125 L 4.03125 -8.703125 C 4.5 -8.703125 4.9375 -8.582031 5.34375 -8.34375 C 5.75 -8.113281 6.070312 -7.789062 6.3125 -7.375 C 6.5625 -6.957031 6.6875 -6.46875 6.6875 -5.90625 C 6.6875 -5.425781 6.597656 -5 6.421875 -4.625 C 6.242188 -4.25 6.003906 -3.941406 5.703125 -3.703125 C 5.410156 -3.460938 5.078125 -3.296875 4.703125 -3.203125 L 7.203125 0 L 4.765625 0 L 2.703125 -3.109375 Z M 3.71875 -7.1875 L 2.6875 -7.1875 L 2.6875 -4.625 L 3.71875 -4.625 C 4 -4.625 4.257812 -4.734375 4.5 -4.953125 C 4.738281 -5.171875 4.859375 -5.488281 4.859375 -5.90625 C 4.859375 -6.3125 4.738281 -6.625 4.5 -6.84375 C 4.257812 -7.070312 4 -7.1875 3.71875 -7.1875 Z M 3.71875 -7.1875 "/></g></g></g><g fill="#c78045" fill-opacity="1"><g transform="translate(259.156369, 298.085752)"><g><path d="M 5.8125 -1.734375 L 5.8125 0 L 0.765625 0 L 0.765625 -8.703125 L 5.8125 -8.703125 L 5.8125 -6.96875 L 2.6875 -6.96875 L 2.6875 -5.234375 L 5.6875 -5.234375 L 5.6875 -3.5 L 2.6875 -3.5 L 2.6875 -1.734375 Z M 5.8125 -1.734375 "/></g></g></g></svg>